<svg width="12" height="12" viewBox="0 0 12 12" fill="none" xmlns="http://www.w3.org/2000/svg">
<path d="M6.60602 11.1061L10.2062 7.50588C10.541 7.17106 10.541 6.62865 10.2062 6.29383C9.87138 5.95901 9.32896 5.95901 8.99414 6.29383L6.85715 8.43082V1.50003C6.85715 1.02626 6.47377 0.642883 6 0.642883C5.52624 0.642883 5.14286 1.02626 5.14286 1.50003V8.43083L3.00587 6.29384C2.67105 5.95902 2.12863 5.95902 1.79382 6.29384C1.62641 6.46125 1.5427 6.68056 1.5427 6.89986C1.5427 7.11917 1.62641 7.33848 1.79382 7.50589L5.39399 11.1061C5.72881 11.4409 6.2712 11.4409 6.60602 11.1061Z" fill="black"/>
</svg>
